<?xml version="1.0" encoding="UTF-8" standalone="no"?><!DOCTYPE svg PUBLIC "-//W3C//DTD SVG 1.1//EN" "http://www.w3.org/Graphics/SVG/1.1/DTD/svg11.dtd"><svg width="100%" height="100%" viewBox="0 0 56 56" version="1.1" xmlns="http://www.w3.org/2000/svg" xmlns:xlink="http://www.w3.org/1999/xlink" xml:space="preserve" xmlns:serif="http://www.serif.com/" style="fill-rule:evenodd;clip-rule:evenodd;stroke-linecap:round;stroke-linejoin:round;"><rect x="0" y="0" width="56" height="56" style="fill:none;fill-rule:nonzero;"/><path d="M49.667,44.25c-0,2.971 -2.446,5.417 -5.417,5.417l-32.5,-0c-2.971,-0 -5.417,-2.446 -5.417,-5.417l0,-32.5c0,-2.971 2.446,-5.417 5.417,-5.417l32.5,0c2.971,0 5.417,2.446 5.417,5.417l-0,32.5" style="fill:none;fill-rule:nonzero;stroke:black;stroke-width:5.42px;"/><path d="M20.796,14.997l17,11c0.68,0.439 1.09,1.194 1.09,2.003c0,0.809 -0.41,1.564 -1.09,2.003l-17,11c-0.734,0.475 -1.668,0.511 -2.436,0.093c-0.768,-0.418 -1.246,-1.222 -1.246,-2.096l-0,-22c-0,-0.874 0.478,-1.678 1.246,-2.096c0.768,-0.418 1.702,-0.382 2.436,0.093Zm1.09,6.389c0,0 0,13.228 0,13.228l10.221,-6.614l-10.221,-6.614Z"/></svg>